<svg width="52" height="52" viewBox="0 0 52 52" fill="none" xmlns="http://www.w3.org/2000/svg">
<path d="M45.4825 20.691C45.4725 18.058 44.564 15.5078 42.9078 13.461C43.4703 11.1216 43.2945 8.66508 42.406 6.42883C42.2308 5.99835 41.8716 5.66923 41.428 5.53158C40.7998 5.31633 38.4227 4.91276 33.5793 8.05182V8.05245C31.4956 7.50246 29.347 7.2428 27.1928 7.28097C25.0353 7.24217 22.883 7.50184 20.7968 8.05245C15.8276 4.84135 13.2441 5.36129 12.7242 5.51394C12.278 5.65723 11.9195 5.99323 11.7462 6.4287C10.8552 8.65743 10.6731 11.107 11.2262 13.4434C9.51553 15.4794 8.60395 18.0679 8.66082 20.7266C8.66082 30.6477 14.3383 33.6435 19.5411 34.7021C19.2739 35.3554 19.09 36.0393 18.9942 36.7382C18.9849 36.8126 18.9849 36.8883 18.9942 36.9628V39.7071C14.2584 40.1019 13.2446 37.3301 13.1458 37.016V37.0166C13.1227 36.9434 13.0957 36.8714 13.0645 36.8007C12.1497 34.935 10.5397 33.5014 8.57946 32.8094C7.7573 32.5347 6.86747 32.9783 6.59293 33.8005C6.31825 34.6227 6.76187 35.5125 7.58403 35.7877C8.67023 36.18 9.57633 36.9546 10.1318 37.9669C10.76 40.0029 13.3255 43.2233 18.9761 42.8642V45.4477C18.9761 46.3149 19.6787 47.0176 20.546 47.0176C21.4126 47.0176 22.1158 46.3149 22.1158 45.4477V37.079C22.2347 36.1649 22.6327 35.3102 23.2546 34.6301C23.7001 34.2133 23.8616 33.5758 23.6688 32.997C23.4761 32.4189 22.9637 32.0053 22.358 31.939C16.8863 31.302 11.8275 29.4995 11.8275 20.6639H11.8269C11.7537 18.5077 12.5865 16.4191 14.1232 14.905C14.5399 14.457 14.6776 13.8169 14.4824 13.2369C13.9537 11.7014 13.9193 10.0389 14.3835 8.48276C16.3093 8.91761 18.1182 9.76543 19.6845 10.9674C20.0924 11.2371 20.6011 11.3066 21.066 11.1558C23.0594 10.5489 25.1368 10.2673 27.2197 10.3217C29.2989 10.2673 31.3738 10.5489 33.364 11.1558C33.8289 11.3078 34.3382 11.2384 34.7456 10.9674C36.2541 9.81115 37.981 8.9721 39.8224 8.50038C40.2798 10.074 40.2392 11.7502 39.7054 13.2995C39.5271 13.8257 39.6435 14.4076 40.0108 14.8243C41.4955 16.4098 42.3366 18.4921 42.3697 20.6639C42.3697 29.4813 37.0507 31.3115 31.8393 31.9391C31.2004 32.0104 30.6704 32.4653 30.504 33.086C30.3376 33.7067 30.5685 34.3655 31.0859 34.7472C31.6422 35.1689 32.2879 36.3527 32.2879 38.3349V45.4391C32.2879 46.3063 32.9905 47.009 33.8571 47.009C34.7244 47.009 35.427 46.3063 35.427 45.4391V38.3349C35.4433 37.0854 35.2149 35.8452 34.7544 34.6839C38.9703 33.7873 45.4827 31.0155 45.4827 20.6909L45.4825 20.691Z" fill="#F8F8F8"/>
<ellipse cx="33.5" cy="20" rx="2.5" ry="3" fill="#ADABAB"/>
<ellipse cx="19.5" cy="20" rx="2.5" ry="3" fill="#ADABAB"/>
</svg>
