<svg width="570" height="570" viewBox="0 0 570 570" fill="none" xmlns="http://www.w3.org/2000/svg">
<path d="M167 310C139.5 308.5 85.5 316.5 89.5 360.5C93.5 404.5 196.833 397.5 248 388.5M248 388.5L279.5 372M248 388.5H288.5M248 388.5L266.5 354" stroke="#3B3B3B" stroke-width="14" stroke-linecap="round"/>
<path d="M465.525 273.288C435.858 265.357 394.325 243.8 465.525 221.025" stroke="#3B3B3B" stroke-width="14" stroke-linecap="round"/>
<path d="M241 221.025C270.667 228.956 312.2 250.513 241 273.288" stroke="#3B3B3B" stroke-width="14" stroke-linecap="round"/>
<mask id="path-4-inside-1_84_7" fill="white">
<path d="M402 317C402 325.667 400.965 334.25 398.955 342.257C396.945 350.265 393.999 357.54 390.284 363.669C386.57 369.798 382.16 374.659 377.307 377.976C372.454 381.293 367.253 383 362 383C356.747 383 351.546 381.293 346.693 377.976C341.84 374.659 337.43 369.798 333.716 363.669C330.001 357.54 327.055 350.265 325.045 342.257C323.035 334.25 322 325.667 322 317L362 317H402Z"/>
</mask>
<path d="M402 317C402 325.667 400.965 334.25 398.955 342.257C396.945 350.265 393.999 357.54 390.284 363.669C386.57 369.798 382.16 374.659 377.307 377.976C372.454 381.293 367.253 383 362 383C356.747 383 351.546 381.293 346.693 377.976C341.84 374.659 337.43 369.798 333.716 363.669C330.001 357.54 327.055 350.265 325.045 342.257C323.035 334.25 322 325.667 322 317L362 317H402Z" fill="white" stroke="#3B3B3B" stroke-width="28" mask="url(#path-4-inside-1_84_7)"/>
</svg>
