<svg width="570" height="570" viewBox="0 0 570 570" fill="none" xmlns="http://www.w3.org/2000/svg">
<path d="M47.9417 153C62.3883 310 166.916 310 166.916 310M47.9417 153L8 115M47.9417 153V95" stroke="#3B3B3B" stroke-width="14" stroke-linecap="round"/>
<path d="M294.612 248C294.612 261.176 290.711 272.821 284.753 281.002C278.79 289.188 271.144 293.5 263.37 293.5C255.596 293.5 247.95 289.188 241.987 281.002C236.028 272.821 232.128 261.176 232.128 248C232.128 234.824 236.028 223.179 241.987 214.998C247.95 206.812 255.596 202.5 263.37 202.5C271.144 202.5 278.79 206.812 284.753 214.998C290.711 223.179 294.612 234.824 294.612 248Z" fill="white" stroke="#3B3B3B" stroke-width="14"/>
<path d="M296.513 322.5L338.579 371L363.223 345L388.718 371L429.084 322.5" stroke="#3B3B3B" stroke-width="14" stroke-linecap="round" stroke-linejoin="round"/>
<path d="M419.736 266.813C427.668 237.147 449.225 195.613 472 266.813" stroke="#3B3B3B" stroke-width="14" stroke-linecap="round"/>
<ellipse cx="252.322" cy="247.5" rx="11.0476" ry="13" fill="#B74BFA"/>
<path d="M46.2418 148.5L26.2711 95.5" stroke="#3B3B3B" stroke-width="14" stroke-linecap="round"/>
</svg>
